Coordinates
version=1
nRows=14
nColumns=36
inDegrees=yes

Units are S.I. units (second, meters, Newtons, ...)
If the header above contains a line with 'inDegrees', this indicates whether rotational values are in degrees (yes) or radians (no).

endheader
time	pelvis_tilt	pelvis_list	pelvis_rotation	pelvis_tx	pelvis_ty	pelvis_tz	hip_flexion_r	hip_adduction_r	hip_rotation_r	knee_angle_r	knee_angle_r_beta	ankle_angle_r	subtalar_angle_r	mtp_angle_r	hip_flexion_l	hip_adduction_l	hip_rotation_l	knee_angle_l	knee_angle_l_beta	ankle_angle_l	subtalar_angle_l	mtp_angle_l	lumbar_extension	lumbar_bending	lumbar_rotation	arm_flex_r	arm_add_r	arm_rot_r	elbow_flex_r	pro_sup_r	arm_flex_l	arm_add_l	arm_rot_l	elbow_flex_l	pro_sup_l
      3.15000000	     -7.53411365	      0.28691923	      0.23014093	     -0.08919938	      0.60459616	      0.03579509	     65.83044080	    -11.85242610	      3.06576554	    107.51139968	      1.87642791	     47.86084182	     -4.28589142	     -7.49999987	     67.74101700	    -19.68341996	      2.34983392	    109.46910244	      1.91059627	     45.23732759	      1.87641360	     -7.49999987	    -23.18472005	      1.30519701	     -3.82447910	     98.93400220	      5.83597196	     27.25811676	     74.85067501	     77.34830298	    123.62116469	      0.09052765	     84.45817855	     93.21825553	     62.79370080
      3.16666670	     -7.58754819	      0.40680861	      0.53980195	     -0.08663808	      0.60034757	      0.03561886	     66.60928976	    -12.39022205	      3.36401264	    108.55360745	      1.89461786	     47.99824864	     -4.01813419	     -7.49999987	     68.45972328	    -19.37121416	      2.52045888	    110.29829808	      1.92506846	     45.09183035	      1.49944054	     -7.49999987	    -23.14572592	      1.22586979	     -4.46840610	     98.14256071	      6.03462201	     26.77973542	     75.41758410	     75.20767845	    122.93642963	      0.06223298	     84.42118998	     93.23270475	     62.44276830
      3.18333330	     -7.59655219	      0.48291478	      0.56435810	     -0.08937947	      0.59510423	      0.03674444	     67.37472593	    -12.46184300	      3.63581213	    109.48344017	      1.91084651	     48.10454243	     -3.96028209	     -7.49999987	     69.16440971	    -19.41833297	      2.76986163	    111.07474534	      1.93862002	     45.49852171	      2.00775894	     -7.49999987	    -22.92220953	      0.64063917	     -5.37347420	     97.08928050	      6.18550688	     27.86039365	     71.55568735	     73.00072328	    122.29317400	      0.13608863	     85.47430697	     95.58043375	     62.04983081
      3.20000000	     -7.84988120	      0.42264411	      0.80538547	     -0.08909961	      0.58903271	      0.03478762	     68.36917405	    -12.76462185	      3.78274993	    110.46305881	      1.92794408	     47.94854732	     -4.50367578	     -7.49999987	     70.32932723	    -19.13801748	      3.19343559	    111.99598428	      1.95469867	     45.58100620	      1.62430597	     -7.49999987	    -22.58482100	      1.25461367	     -6.21344792	    101.97249677	      9.91045940	     37.29323386	     51.27151426	     73.46869116	    120.57808740	     -1.34670933	     83.93867408	    100.26007351	     56.90757706
      3.21666670	     -8.24429059	      0.52534548	      0.98286089	     -0.08377671	      0.58548757	      0.03581333	     68.94854758	    -12.96381021	      4.01154783	    111.27211420	      1.94206476	     47.98620915	     -4.95780457	     -7.49999987	     70.85400314	    -19.11949052	      3.34581828	    112.51770516	      1.96380442	     45.97504910	      1.70142133	     -7.49999987	    -22.37133296	      0.93366637	     -4.60426020	    104.77407666	      9.77755271	     44.29751195	     45.28467927	     71.75734361	    119.27659290	      0.12434302	     82.48148271	    101.89687474	     57.12260908
      3.23333330	     -8.21519298	      0.68002641	      0.98761684	     -0.08627228	      0.58009186	      0.03505028	     69.46471202	    -13.08289379	      4.33416610	    112.17198045	      1.95777039	     47.99433921	     -5.08006885	     -7.49999987	     71.33740848	    -18.99955906	      3.51311252	    113.41437816	      1.97945432	     46.02843623	      1.33776383	     -7.49999987	    -22.70062078	      0.69677939	     -3.34748784	    106.30314613	      9.31146711	     48.38973505	     43.80519894	     69.45646457	    118.62569105	      1.35342926	     81.43248839	    104.18603623	     57.81868093
      3.25000000	     -7.88112777	      0.91540142	      1.05665294	     -0.08958554	      0.57316912	      0.03545852	     70.24192433	    -13.35420744	      4.84760695	    113.44962833	      1.98006955	     48.23989807	     -4.56378146	     -7.49999987	     71.89172241	    -18.77999985	      3.69586409	    114.53678038	      1.99904393	     46.05195868	      1.11190647	     -7.49999987	    -23.45792758	     -0.15167693	     -2.23726734	    106.77918351	      7.90946465	     48.29582018	     43.47991156	     67.99165230	    119.01804313	      3.99888656	     81.89300352	    104.21572954	     58.38896335
      3.26666670	     -8.09140957	      0.78975714	      1.09417848	     -0.08621654	      0.56934737	      0.03664554	     71.05278263	    -13.19051761	      4.97348870	    114.34052333	      1.99561860	     48.01320185	     -5.45112427	     -7.49999987	     72.86794580	    -18.88835605	      4.33584041	    115.46990083	      2.01532996	     45.89968310	      0.81545804	     -7.49999987	    -22.80122600	      0.34364089	     -1.70352656	    106.99754515	      8.04976797	     50.49590653	     41.58870986	     66.63607878	    117.19320024	      3.88139073	     80.81020871	    106.21446414	     59.50084004
      3.28333330	     -8.06645069	      0.86177055	      1.09024072	     -0.09174162	      0.56143122	      0.03531895	     72.05265250	    -13.20303990	      5.31006961	    115.43900776	      2.01479077	     48.04595639	     -5.47046281	     -7.49999987	     73.89503573	    -18.70363984	      4.68552149	    116.58401568	      2.03477493	     45.81642984	      0.41470352	     -7.49999987	    -23.16073845	      0.31666243	     -1.48158213	    107.44681955	      7.71617611	     50.55416594	     41.82587087	     66.53006862	    117.41753637	      4.31271738	     80.47170955	    106.71887515	     59.69445461
      3.30000000	     -8.39741029	      0.82212002	      1.17233386	     -0.09201964	      0.55777953	      0.03719003	     73.18137802	    -13.12277095	      5.50742992	    116.29110156	      2.02966261	     48.15461860	     -5.31556967	     -7.49999987	     75.12416766	    -18.62100969	      5.24082692	    117.50704974	      2.05088491	     45.40859368	      0.03483122	     -7.49999987	    -23.02082961	      0.15929969	     -1.22623756	    107.14552886	      6.42366164	     49.89724351	     44.27271810	     65.42851737	    117.43970697	      4.67490203	     80.26209273	    107.83174367	     60.78940896
      3.31666670	     -8.65149756	      0.75701440	      1.10488576	     -0.09152686	      0.55165564	      0.03677299	     74.04901563	    -12.98617342	      5.70516654	    117.09868193	      2.04375755	     48.37405188	     -5.06640828	     -7.49999987	     76.30383541	    -18.66741358	      5.79631387	    118.49673756	      2.06815822	     45.10829850	     -0.22579297	     -7.49999987	    -22.74232579	      0.30163728	     -0.96215336	    106.66527020	      5.63821425	     49.55877861	     45.56480548	     65.37578206	    117.14587638	      4.66125661	     79.90172545	    109.45410645	     62.05407396
      3.33333330	     -8.61799666	      0.73844131	      0.99167100	     -0.09262967	      0.54743176	      0.03724928	     74.73044561	    -12.86762074	      5.95304841	    117.90990788	      2.05791611	     48.44549121	     -4.84773991	     -7.49999987	     77.10304707	    -18.68320746	      6.23232438	    119.38491209	      2.08365979	     44.96502350	     -0.41025406	     -7.49999987	    -22.69042086	      0.35406318	     -0.87365530	    105.83642859	      4.89684707	     47.93814425	     47.41496699	     67.97008043	    116.93912704	      4.44296375	     79.66488110	    110.46750175	     67.58423791
      3.35000000	     -8.80601455	      0.78477061	      0.94250117	     -0.09208921	      0.54249212	      0.03696563	     75.64078166	    -12.87058363	      6.35303196	    118.81890476	      2.07378110	     48.53580898	     -4.60950005	     -7.49999987	     78.01542972	    -18.70696729	      6.55454173	    120.27419096	      2.09918064	     44.78395841	     -0.64236508	     -7.49999987	    -22.36015011	      0.24360000	     -0.81811054	    105.04020412	      3.99206739	     46.97467542	     49.56733866	     67.12052548	    116.70479405	      4.21337104	     79.71938584	    111.18768319	     66.93115673
      3.36666670	     -8.74190025	      0.73266964	      0.86065188	     -0.09237759	      0.53904067	      0.03736163	     76.29701725	    -12.82623946	      6.60898253	    119.62847055	      2.08791069	     48.47569191	     -4.37379304	     -7.49999987	     78.78588043	    -18.75273710	      6.99188611	    121.19777863	      2.11530028	     44.40990036	     -0.93783356	     -7.49999987	    -22.16250453	      0.40903737	     -1.00413006	    103.70778544	      3.71261530	     44.37583951	     51.14209891	     70.53162480	    116.28632375	      3.36932188	     79.46596960	    112.12478750	     69.02519878
